<svg width="34" height="34" viewBox="0 0 34 34" fill="none" xmlns="http://www.w3.org/2000/svg">
<path d="M28.6668 3.66665H25.3335V1.99998C25.3335 1.55795 25.1579 1.13403 24.8453 0.821468C24.5328 0.508908 24.1089 0.333313 23.6668 0.333313C23.2248 0.333313 22.8009 0.508908 22.4883 0.821468C22.1758 1.13403 22.0002 1.55795 22.0002 1.99998V3.66665H12.0002V1.99998C12.0002 1.55795 11.8246 1.13403 11.512 0.821468C11.1994 0.508908 10.7755 0.333313 10.3335 0.333313C9.89147 0.333313 9.46755 0.508908 9.15498 0.821468C8.84242 1.13403 8.66683 1.55795 8.66683 1.99998V3.66665H5.3335C4.00741 3.66665 2.73564 4.19343 1.79796 5.13111C0.86028 6.06879 0.333496 7.34056 0.333496 8.66665V28.6666C0.333496 29.9927 0.86028 31.2645 1.79796 32.2022C2.73564 33.1399 4.00741 33.6666 5.3335 33.6666H28.6668C29.9929 33.6666 31.2647 33.1399 32.2024 32.2022C33.14 31.2645 33.6668 29.9927 33.6668 28.6666V8.66665C33.6668 7.34056 33.14 6.06879 32.2024 5.13111C31.2647 4.19343 29.9929 3.66665 28.6668 3.66665ZM30.3335 28.6666C30.3335 29.1087 30.1579 29.5326 29.8453 29.8452C29.5328 30.1577 29.1089 30.3333 28.6668 30.3333H5.3335C4.89147 30.3333 4.46755 30.1577 4.15499 29.8452C3.84242 29.5326 3.66683 29.1087 3.66683 28.6666V17H30.3335V28.6666ZM30.3335 13.6666H3.66683V8.66665C3.66683 8.22462 3.84242 7.8007 4.15499 7.48814C4.46755 7.17557 4.89147 6.99998 5.3335 6.99998H8.66683V8.66665C8.66683 9.10867 8.84242 9.5326 9.15498 9.84516C9.46755 10.1577 9.89147 10.3333 10.3335 10.3333C10.7755 10.3333 11.1994 10.1577 11.512 9.84516C11.8246 9.5326 12.0002 9.10867 12.0002 8.66665V6.99998H22.0002V8.66665C22.0002 9.10867 22.1758 9.5326 22.4883 9.84516C22.8009 10.1577 23.2248 10.3333 23.6668 10.3333C24.1089 10.3333 24.5328 10.1577 24.8453 9.84516C25.1579 9.5326 25.3335 9.10867 25.3335 8.66665V6.99998H28.6668C29.1089 6.99998 29.5328 7.17557 29.8453 7.48814C30.1579 7.8007 30.3335 8.22462 30.3335 8.66665V13.6666Z" fill="#579BB1"/>
</svg>
