<svg width="258" height="68" viewBox="0 0 258 68" fill="none" xmlns="http://www.w3.org/2000/svg">
<g filter="url(#filter0_d_441_1381)">
<rect x="4.61133" width="249" height="60" rx="30" fill="white"/>
</g>
<path d="M67.4724 37.126C66.6444 37.126 65.9004 36.982 65.2404 36.694C64.5924 36.394 64.0824 35.986 63.7104 35.47C63.3384 34.942 63.1464 34.336 63.1344 33.652H64.8804C64.9404 34.24 65.1804 34.738 65.6004 35.146C66.0324 35.542 66.6564 35.74 67.4724 35.74C68.2524 35.74 68.8644 35.548 69.3084 35.164C69.7644 34.768 69.9924 34.264 69.9924 33.652C69.9924 33.172 69.8604 32.782 69.5964 32.482C69.3324 32.182 69.0024 31.954 68.6064 31.798C68.2104 31.642 67.6764 31.474 67.0044 31.294C66.1764 31.078 65.5104 30.862 65.0064 30.646C64.5144 30.43 64.0884 30.094 63.7284 29.638C63.3804 29.17 63.2064 28.546 63.2064 27.766C63.2064 27.082 63.3804 26.476 63.7284 25.948C64.0764 25.42 64.5624 25.012 65.1864 24.724C65.8224 24.436 66.5484 24.292 67.3644 24.292C68.5404 24.292 69.5004 24.586 70.2444 25.174C71.0004 25.762 71.4264 26.542 71.5224 27.514H69.7224C69.6624 27.034 69.4104 26.614 68.9664 26.254C68.5224 25.882 67.9344 25.696 67.2024 25.696C66.5184 25.696 65.9604 25.876 65.5284 26.236C65.0964 26.584 64.8804 27.076 64.8804 27.712C64.8804 28.168 65.0064 28.54 65.2584 28.828C65.5224 29.116 65.8404 29.338 66.2124 29.494C66.5964 29.638 67.1304 29.806 67.8144 29.998C68.6424 30.226 69.3084 30.454 69.8124 30.682C70.3164 30.898 70.7484 31.24 71.1084 31.708C71.4684 32.164 71.6484 32.788 71.6484 33.58C71.6484 34.192 71.4864 34.768 71.1624 35.308C70.8384 35.848 70.3584 36.286 69.7224 36.622C69.0864 36.958 68.3364 37.126 67.4724 37.126ZM74.9049 25.534C74.5929 25.534 74.3289 25.426 74.1129 25.21C73.8969 24.994 73.7889 24.73 73.7889 24.418C73.7889 24.106 73.8969 23.842 74.1129 23.626C74.3289 23.41 74.5929 23.302 74.9049 23.302C75.2049 23.302 75.4569 23.41 75.6609 23.626C75.8769 23.842 75.9849 24.106 75.9849 24.418C75.9849 24.73 75.8769 24.994 75.6609 25.21C75.4569 25.426 75.2049 25.534 74.9049 25.534ZM75.6969 27.136V37H74.0589V27.136H75.6969ZM82.5565 26.974C83.4085 26.974 84.1525 27.16 84.7885 27.532C85.4365 27.904 85.9165 28.372 86.2285 28.936V27.136H87.8845V37.216C87.8845 38.116 87.6925 38.914 87.3085 39.61C86.9245 40.318 86.3725 40.87 85.6525 41.266C84.9445 41.662 84.1165 41.86 83.1685 41.86C81.8725 41.86 80.7925 41.554 79.9285 40.942C79.0645 40.33 78.5545 39.496 78.3985 38.44H80.0185C80.1985 39.04 80.5705 39.52 81.1345 39.88C81.6985 40.252 82.3765 40.438 83.1685 40.438C84.0685 40.438 84.8005 40.156 85.3645 39.592C85.9405 39.028 86.2285 38.236 86.2285 37.216V35.146C85.9045 35.722 85.4245 36.202 84.7885 36.586C84.1525 36.97 83.4085 37.162 82.5565 37.162C81.6805 37.162 80.8825 36.946 80.1625 36.514C79.4545 36.082 78.8965 35.476 78.4885 34.696C78.0805 33.916 77.8765 33.028 77.8765 32.032C77.8765 31.024 78.0805 30.142 78.4885 29.386C78.8965 28.618 79.4545 28.024 80.1625 27.604C80.8825 27.184 81.6805 26.974 82.5565 26.974ZM86.2285 32.05C86.2285 31.306 86.0785 30.658 85.7785 30.106C85.4785 29.554 85.0705 29.134 84.5545 28.846C84.0505 28.546 83.4925 28.396 82.8805 28.396C82.2685 28.396 81.7105 28.54 81.2065 28.828C80.7025 29.116 80.3005 29.536 80.0005 30.088C79.7005 30.64 79.5505 31.288 79.5505 32.032C79.5505 32.788 79.7005 33.448 80.0005 34.012C80.3005 34.564 80.7025 34.99 81.2065 35.29C81.7105 35.578 82.2685 35.722 82.8805 35.722C83.4925 35.722 84.0505 35.578 84.5545 35.29C85.0705 34.99 85.4785 34.564 85.7785 34.012C86.0785 33.448 86.2285 32.794 86.2285 32.05ZM95.4586 26.956C96.6586 26.956 97.6306 27.322 98.3746 28.054C99.1186 28.774 99.4906 29.818 99.4906 31.186V37H97.8706V31.42C97.8706 30.436 97.6246 29.686 97.1326 29.17C96.6406 28.642 95.9686 28.378 95.1166 28.378C94.2526 28.378 93.5626 28.648 93.0466 29.188C92.5426 29.728 92.2906 30.514 92.2906 31.546V37H90.6526V27.136H92.2906V28.54C92.6146 28.036 93.0526 27.646 93.6046 27.37C94.1686 27.094 94.7866 26.956 95.4586 26.956ZM110.914 27.136V37H109.276V35.542C108.964 36.046 108.526 36.442 107.962 36.73C107.41 37.006 106.798 37.144 106.126 37.144C105.358 37.144 104.668 36.988 104.056 36.676C103.444 36.352 102.958 35.872 102.598 35.236C102.25 34.6 102.076 33.826 102.076 32.914V27.136H103.696V32.698C103.696 33.67 103.942 34.42 104.434 34.948C104.926 35.464 105.598 35.722 106.45 35.722C107.326 35.722 108.016 35.452 108.52 34.912C109.024 34.372 109.276 33.586 109.276 32.554V27.136H110.914ZM115.318 28.954C115.642 28.39 116.122 27.922 116.758 27.55C117.406 27.166 118.156 26.974 119.008 26.974C119.884 26.974 120.676 27.184 121.384 27.604C122.104 28.024 122.668 28.618 123.076 29.386C123.484 30.142 123.688 31.024 123.688 32.032C123.688 33.028 123.484 33.916 123.076 34.696C122.668 35.476 122.104 36.082 121.384 36.514C120.676 36.946 119.884 37.162 119.008 37.162C118.168 37.162 117.424 36.976 116.776 36.604C116.14 36.22 115.654 35.746 115.318 35.182V41.68H113.68V27.136H115.318V28.954ZM122.014 32.032C122.014 31.288 121.864 30.64 121.564 30.088C121.264 29.536 120.856 29.116 120.34 28.828C119.836 28.54 119.278 28.396 118.666 28.396C118.066 28.396 117.508 28.546 116.992 28.846C116.488 29.134 116.08 29.56 115.768 30.124C115.468 30.676 115.318 31.318 115.318 32.05C115.318 32.794 115.468 33.448 115.768 34.012C116.08 34.564 116.488 34.99 116.992 35.29C117.508 35.578 118.066 35.722 118.666 35.722C119.278 35.722 119.836 35.578 120.34 35.29C120.856 34.99 121.264 34.564 121.564 34.012C121.864 33.448 122.014 32.788 122.014 32.032ZM143.783 27.136L140.705 37H139.013L136.637 29.17L134.261 37H132.569L129.473 27.136H131.147L133.415 35.416L135.863 27.136H137.537L139.931 35.434L142.163 27.136H143.783ZM146.254 25.534C145.942 25.534 145.678 25.426 145.462 25.21C145.246 24.994 145.138 24.73 145.138 24.418C145.138 24.106 145.246 23.842 145.462 23.626C145.678 23.41 145.942 23.302 146.254 23.302C146.554 23.302 146.806 23.41 147.01 23.626C147.226 23.842 147.334 24.106 147.334 24.418C147.334 24.73 147.226 24.994 147.01 25.21C146.806 25.426 146.554 25.534 146.254 25.534ZM147.046 27.136V37H145.408V27.136H147.046ZM151.836 28.486V34.3C151.836 34.78 151.938 35.122 152.142 35.326C152.346 35.518 152.7 35.614 153.204 35.614H154.41V37H152.934C152.022 37 151.338 36.79 150.882 36.37C150.426 35.95 150.198 35.26 150.198 34.3V28.486H148.92V27.136H150.198V24.652H151.836V27.136H154.41V28.486H151.836ZM161.291 26.956C162.035 26.956 162.707 27.118 163.307 27.442C163.907 27.754 164.375 28.228 164.711 28.864C165.059 29.5 165.233 30.274 165.233 31.186V37H163.613V31.42C163.613 30.436 163.367 29.686 162.875 29.17C162.383 28.642 161.711 28.378 160.859 28.378C159.995 28.378 159.305 28.648 158.789 29.188C158.285 29.728 158.033 30.514 158.033 31.546V37H156.395V23.68H158.033V28.54C158.357 28.036 158.801 27.646 159.365 27.37C159.941 27.094 160.583 26.956 161.291 26.956ZM182.211 28.09C181.863 27.358 181.359 26.794 180.699 26.398C180.039 25.99 179.271 25.786 178.395 25.786C177.519 25.786 176.727 25.99 176.019 26.398C175.323 26.794 174.771 27.37 174.363 28.126C173.967 28.87 173.769 29.734 173.769 30.718C173.769 31.702 173.967 32.566 174.363 33.31C174.771 34.054 175.323 34.63 176.019 35.038C176.727 35.434 177.519 35.632 178.395 35.632C179.619 35.632 180.627 35.266 181.419 34.534C182.211 33.802 182.673 32.812 182.805 31.564H177.801V30.232H184.551V31.492C184.455 32.524 184.131 33.472 183.579 34.336C183.027 35.188 182.301 35.866 181.401 36.37C180.501 36.862 179.499 37.108 178.395 37.108C177.231 37.108 176.169 36.838 175.209 36.298C174.249 35.746 173.487 34.984 172.923 34.012C172.371 33.04 172.095 31.942 172.095 30.718C172.095 29.494 172.371 28.396 172.923 27.424C173.487 26.44 174.249 25.678 175.209 25.138C176.169 24.586 177.231 24.31 178.395 24.31C179.727 24.31 180.903 24.64 181.923 25.3C182.955 25.96 183.705 26.89 184.173 28.09H182.211ZM191.019 37.162C190.095 37.162 189.255 36.952 188.499 36.532C187.755 36.112 187.167 35.518 186.735 34.75C186.315 33.97 186.105 33.07 186.105 32.05C186.105 31.042 186.321 30.154 186.753 29.386C187.197 28.606 187.797 28.012 188.553 27.604C189.309 27.184 190.155 26.974 191.091 26.974C192.027 26.974 192.873 27.184 193.629 27.604C194.385 28.012 194.979 28.6 195.411 29.368C195.855 30.136 196.077 31.03 196.077 32.05C196.077 33.07 195.849 33.97 195.393 34.75C194.949 35.518 194.343 36.112 193.575 36.532C192.807 36.952 191.955 37.162 191.019 37.162ZM191.019 35.722C191.607 35.722 192.159 35.584 192.675 35.308C193.191 35.032 193.605 34.618 193.917 34.066C194.241 33.514 194.403 32.842 194.403 32.05C194.403 31.258 194.247 30.586 193.935 30.034C193.623 29.482 193.215 29.074 192.711 28.81C192.207 28.534 191.661 28.396 191.073 28.396C190.473 28.396 189.921 28.534 189.417 28.81C188.925 29.074 188.529 29.482 188.229 30.034C187.929 30.586 187.779 31.258 187.779 32.05C187.779 32.854 187.923 33.532 188.211 34.084C188.511 34.636 188.907 35.05 189.399 35.326C189.891 35.59 190.431 35.722 191.019 35.722ZM202.533 37.162C201.609 37.162 200.769 36.952 200.013 36.532C199.269 36.112 198.681 35.518 198.249 34.75C197.829 33.97 197.619 33.07 197.619 32.05C197.619 31.042 197.835 30.154 198.267 29.386C198.711 28.606 199.311 28.012 200.067 27.604C200.823 27.184 201.669 26.974 202.605 26.974C203.541 26.974 204.387 27.184 205.143 27.604C205.899 28.012 206.493 28.6 206.925 29.368C207.369 30.136 207.591 31.03 207.591 32.05C207.591 33.07 207.363 33.97 206.907 34.75C206.463 35.518 205.857 36.112 205.089 36.532C204.321 36.952 203.469 37.162 202.533 37.162ZM202.533 35.722C203.121 35.722 203.673 35.584 204.189 35.308C204.705 35.032 205.119 34.618 205.431 34.066C205.755 33.514 205.917 32.842 205.917 32.05C205.917 31.258 205.761 30.586 205.449 30.034C205.137 29.482 204.729 29.074 204.225 28.81C203.721 28.534 203.175 28.396 202.587 28.396C201.987 28.396 201.435 28.534 200.931 28.81C200.439 29.074 200.043 29.482 199.743 30.034C199.443 30.586 199.293 31.258 199.293 32.05C199.293 32.854 199.437 33.532 199.725 34.084C200.025 34.636 200.421 35.05 200.913 35.326C201.405 35.59 201.945 35.722 202.533 35.722ZM213.812 26.974C214.664 26.974 215.408 27.16 216.044 27.532C216.692 27.904 217.172 28.372 217.484 28.936V27.136H219.14V37.216C219.14 38.116 218.948 38.914 218.564 39.61C218.18 40.318 217.628 40.87 216.908 41.266C216.2 41.662 215.372 41.86 214.424 41.86C213.128 41.86 212.048 41.554 211.184 40.942C210.32 40.33 209.81 39.496 209.654 38.44H211.274C211.454 39.04 211.826 39.52 212.39 39.88C212.954 40.252 213.632 40.438 214.424 40.438C215.324 40.438 216.056 40.156 216.62 39.592C217.196 39.028 217.484 38.236 217.484 37.216V35.146C217.16 35.722 216.68 36.202 216.044 36.586C215.408 36.97 214.664 37.162 213.812 37.162C212.936 37.162 212.138 36.946 211.418 36.514C210.71 36.082 210.152 35.476 209.744 34.696C209.336 33.916 209.132 33.028 209.132 32.032C209.132 31.024 209.336 30.142 209.744 29.386C210.152 28.618 210.71 28.024 211.418 27.604C212.138 27.184 212.936 26.974 213.812 26.974ZM217.484 32.05C217.484 31.306 217.334 30.658 217.034 30.106C216.734 29.554 216.326 29.134 215.81 28.846C215.306 28.546 214.748 28.396 214.136 28.396C213.524 28.396 212.966 28.54 212.462 28.828C211.958 29.116 211.556 29.536 211.256 30.088C210.956 30.64 210.806 31.288 210.806 32.032C210.806 32.788 210.956 33.448 211.256 34.012C211.556 34.564 211.958 34.99 212.462 35.29C212.966 35.578 213.524 35.722 214.136 35.722C214.748 35.722 215.306 35.578 215.81 35.29C216.326 34.99 216.734 34.564 217.034 34.012C217.334 33.448 217.484 32.794 217.484 32.05ZM223.546 23.68V37H221.908V23.68H223.546ZM235.338 31.69C235.338 32.002 235.32 32.332 235.284 32.68H227.4C227.46 33.652 227.79 34.414 228.39 34.966C229.002 35.506 229.74 35.776 230.604 35.776C231.312 35.776 231.9 35.614 232.368 35.29C232.848 34.954 233.184 34.51 233.376 33.958H235.14C234.876 34.906 234.348 35.68 233.556 36.28C232.764 36.868 231.78 37.162 230.604 37.162C229.668 37.162 228.828 36.952 228.084 36.532C227.352 36.112 226.776 35.518 226.356 34.75C225.936 33.97 225.726 33.07 225.726 32.05C225.726 31.03 225.93 30.136 226.338 29.368C226.746 28.6 227.316 28.012 228.048 27.604C228.792 27.184 229.644 26.974 230.604 26.974C231.54 26.974 232.368 27.178 233.088 27.586C233.808 27.994 234.36 28.558 234.744 29.278C235.14 29.986 235.338 30.79 235.338 31.69ZM233.646 31.348C233.646 30.724 233.508 30.19 233.232 29.746C232.956 29.29 232.578 28.948 232.098 28.72C231.63 28.48 231.108 28.36 230.532 28.36C229.704 28.36 228.996 28.624 228.408 29.152C227.832 29.68 227.502 30.412 227.418 31.348H233.646Z" fill="black"/>
<g clip-path="url(#clip0_441_1381)">
<path d="M49.5955 30.2806C49.5955 29.0515 49.4935 28.1546 49.2726 27.2245H34.9102V32.772H43.3406C43.1707 34.1506 42.2528 36.2268 40.2132 37.6219L40.1846 37.8076L44.7257 41.2454L45.0403 41.2761C47.9298 38.6683 49.5955 34.8315 49.5955 30.2806Z" fill="#4285F4"/>
<path d="M34.9107 44.8969C39.0409 44.8969 42.5082 43.5681 45.0409 41.2761L40.2137 37.6219C38.922 38.5022 37.1882 39.1167 34.9107 39.1167C30.8655 39.1167 27.4321 36.5091 26.2082 32.9049L26.0288 32.9198L21.3069 36.4908L21.2451 36.6586C23.7606 41.5417 28.9277 44.8969 34.9107 44.8969Z" fill="#34A853"/>
<path d="M26.208 32.905C25.8851 31.9749 25.6982 30.9782 25.6982 29.9485C25.6982 28.9187 25.8851 27.9221 26.191 26.992L26.1825 26.7939L21.4014 23.1655L21.2449 23.2382C20.2082 25.2646 19.6133 27.5401 19.6133 29.9485C19.6133 32.3569 20.2082 34.6323 21.2449 36.6587L26.208 32.905Z" fill="#FBBC05"/>
<path d="M34.9107 20.78C37.7831 20.78 39.7208 21.9925 40.8256 23.0058L45.1428 18.8866C42.4914 16.4782 39.0409 15 34.9107 15C28.9277 15 23.7606 18.3551 21.2451 23.2382L26.1912 26.992C27.4321 23.3877 30.8655 20.78 34.9107 20.78Z" fill="#EB4335"/>
</g>
<defs>
<filter id="filter0_d_441_1381" x="0.611328" y="0" width="257" height="68" filterUnits="userSpaceOnUse" color-interpolation-filters="sRGB">
<feFlood flood-opacity="0" result="BackgroundImageFix"/>
<feColorMatrix in="SourceAlpha" type="matrix" values="0 0 0 0 0 0 0 0 0 0 0 0 0 0 0 0 0 0 127 0" result="hardAlpha"/>
<feOffset dy="4"/>
<feGaussianBlur stdDeviation="2"/>
<feComposite in2="hardAlpha" operator="out"/>
<feColorMatrix type="matrix" values="0 0 0 0 0 0 0 0 0 0 0 0 0 0 0 0 0 0 0.25 0"/>
<feBlend mode="normal" in2="BackgroundImageFix" result="effect1_dropShadow_441_1381"/>
<feBlend mode="normal" in="SourceGraphic" in2="effect1_dropShadow_441_1381" result="shape"/>
</filter>
<clipPath id="clip0_441_1381">
<rect width="30" height="30" fill="white" transform="translate(19.6113 15)"/>
</clipPath>
</defs>
</svg>
