<svg width="258" height="68" viewBox="0 0 258 68" fill="none" xmlns="http://www.w3.org/2000/svg">
<g filter="url(#filter0_d_441_1382)">
<rect x="4.61133" width="249" height="60" rx="30" fill="#0077B5"/>
</g>
<path d="M63.7458 36.126C62.9178 36.126 62.1738 35.982 61.5138 35.694C60.8658 35.394 60.3558 34.986 59.9838 34.47C59.6118 33.942 59.4198 33.336 59.4078 32.652H61.1538C61.2138 33.24 61.4538 33.738 61.8738 34.146C62.3058 34.542 62.9298 34.74 63.7458 34.74C64.5258 34.74 65.1378 34.548 65.5818 34.164C66.0378 33.768 66.2658 33.264 66.2658 32.652C66.2658 32.172 66.1338 31.782 65.8698 31.482C65.6058 31.182 65.2758 30.954 64.8798 30.798C64.4838 30.642 63.9498 30.474 63.2778 30.294C62.4498 30.078 61.7838 29.862 61.2798 29.646C60.7878 29.43 60.3618 29.094 60.0018 28.638C59.6538 28.17 59.4798 27.546 59.4798 26.766C59.4798 26.082 59.6538 25.476 60.0018 24.948C60.3498 24.42 60.8358 24.012 61.4598 23.724C62.0958 23.436 62.8218 23.292 63.6378 23.292C64.8138 23.292 65.7738 23.586 66.5178 24.174C67.2738 24.762 67.6998 25.542 67.7958 26.514H65.9958C65.9358 26.034 65.6838 25.614 65.2398 25.254C64.7958 24.882 64.2078 24.696 63.4758 24.696C62.7918 24.696 62.2338 24.876 61.8018 25.236C61.3698 25.584 61.1538 26.076 61.1538 26.712C61.1538 27.168 61.2798 27.54 61.5318 27.828C61.7958 28.116 62.1138 28.338 62.4858 28.494C62.8698 28.638 63.4038 28.806 64.0878 28.998C64.9158 29.226 65.5818 29.454 66.0858 29.682C66.5898 29.898 67.0218 30.24 67.3818 30.708C67.7418 31.164 67.9218 31.788 67.9218 32.58C67.9218 33.192 67.7598 33.768 67.4358 34.308C67.1118 34.848 66.6318 35.286 65.9958 35.622C65.3598 35.958 64.6098 36.126 63.7458 36.126ZM71.1783 24.534C70.8663 24.534 70.6023 24.426 70.3863 24.21C70.1703 23.994 70.0623 23.73 70.0623 23.418C70.0623 23.106 70.1703 22.842 70.3863 22.626C70.6023 22.41 70.8663 22.302 71.1783 22.302C71.4783 22.302 71.7303 22.41 71.9343 22.626C72.1503 22.842 72.2583 23.106 72.2583 23.418C72.2583 23.73 72.1503 23.994 71.9343 24.21C71.7303 24.426 71.4783 24.534 71.1783 24.534ZM71.9703 26.136V36H70.3323V26.136H71.9703ZM78.83 25.974C79.682 25.974 80.426 26.16 81.062 26.532C81.71 26.904 82.19 27.372 82.502 27.936V26.136H84.158V36.216C84.158 37.116 83.966 37.914 83.582 38.61C83.198 39.318 82.646 39.87 81.926 40.266C81.218 40.662 80.39 40.86 79.442 40.86C78.146 40.86 77.066 40.554 76.202 39.942C75.338 39.33 74.828 38.496 74.672 37.44H76.292C76.472 38.04 76.844 38.52 77.408 38.88C77.972 39.252 78.65 39.438 79.442 39.438C80.342 39.438 81.074 39.156 81.638 38.592C82.214 38.028 82.502 37.236 82.502 36.216V34.146C82.178 34.722 81.698 35.202 81.062 35.586C80.426 35.97 79.682 36.162 78.83 36.162C77.954 36.162 77.156 35.946 76.436 35.514C75.728 35.082 75.17 34.476 74.762 33.696C74.354 32.916 74.15 32.028 74.15 31.032C74.15 30.024 74.354 29.142 74.762 28.386C75.17 27.618 75.728 27.024 76.436 26.604C77.156 26.184 77.954 25.974 78.83 25.974ZM82.502 31.05C82.502 30.306 82.352 29.658 82.052 29.106C81.752 28.554 81.344 28.134 80.828 27.846C80.324 27.546 79.766 27.396 79.154 27.396C78.542 27.396 77.984 27.54 77.48 27.828C76.976 28.116 76.574 28.536 76.274 29.088C75.974 29.64 75.824 30.288 75.824 31.032C75.824 31.788 75.974 32.448 76.274 33.012C76.574 33.564 76.976 33.99 77.48 34.29C77.984 34.578 78.542 34.722 79.154 34.722C79.766 34.722 80.324 34.578 80.828 34.29C81.344 33.99 81.752 33.564 82.052 33.012C82.352 32.448 82.502 31.794 82.502 31.05ZM91.732 25.956C92.932 25.956 93.904 26.322 94.648 27.054C95.392 27.774 95.764 28.818 95.764 30.186V36H94.144V30.42C94.144 29.436 93.898 28.686 93.406 28.17C92.914 27.642 92.242 27.378 91.39 27.378C90.526 27.378 89.836 27.648 89.32 28.188C88.816 28.728 88.564 29.514 88.564 30.546V36H86.926V26.136H88.564V27.54C88.888 27.036 89.326 26.646 89.878 26.37C90.442 26.094 91.06 25.956 91.732 25.956ZM107.188 26.136V36H105.55V34.542C105.238 35.046 104.8 35.442 104.236 35.73C103.684 36.006 103.072 36.144 102.4 36.144C101.632 36.144 100.942 35.988 100.33 35.676C99.7177 35.352 99.2317 34.872 98.8717 34.236C98.5237 33.6 98.3497 32.826 98.3497 31.914V26.136H99.9697V31.698C99.9697 32.67 100.216 33.42 100.708 33.948C101.2 34.464 101.872 34.722 102.724 34.722C103.6 34.722 104.29 34.452 104.794 33.912C105.298 33.372 105.55 32.586 105.55 31.554V26.136H107.188ZM111.591 27.954C111.915 27.39 112.395 26.922 113.031 26.55C113.679 26.166 114.429 25.974 115.281 25.974C116.157 25.974 116.949 26.184 117.657 26.604C118.377 27.024 118.941 27.618 119.349 28.386C119.757 29.142 119.961 30.024 119.961 31.032C119.961 32.028 119.757 32.916 119.349 33.696C118.941 34.476 118.377 35.082 117.657 35.514C116.949 35.946 116.157 36.162 115.281 36.162C114.441 36.162 113.697 35.976 113.049 35.604C112.413 35.22 111.927 34.746 111.591 34.182V40.68H109.953V26.136H111.591V27.954ZM118.287 31.032C118.287 30.288 118.137 29.64 117.837 29.088C117.537 28.536 117.129 28.116 116.613 27.828C116.109 27.54 115.551 27.396 114.939 27.396C114.339 27.396 113.781 27.546 113.265 27.846C112.761 28.134 112.353 28.56 112.041 29.124C111.741 29.676 111.591 30.318 111.591 31.05C111.591 31.794 111.741 32.448 112.041 33.012C112.353 33.564 112.761 33.99 113.265 34.29C113.781 34.578 114.339 34.722 114.939 34.722C115.551 34.722 116.109 34.578 116.613 34.29C117.129 33.99 117.537 33.564 117.837 33.012C118.137 32.448 118.287 31.788 118.287 31.032ZM140.056 26.136L136.978 36H135.286L132.91 28.17L130.534 36H128.842L125.746 26.136H127.42L129.688 34.416L132.136 26.136H133.81L136.204 34.434L138.436 26.136H140.056ZM142.528 24.534C142.216 24.534 141.952 24.426 141.736 24.21C141.52 23.994 141.412 23.73 141.412 23.418C141.412 23.106 141.52 22.842 141.736 22.626C141.952 22.41 142.216 22.302 142.528 22.302C142.828 22.302 143.08 22.41 143.284 22.626C143.5 22.842 143.608 23.106 143.608 23.418C143.608 23.73 143.5 23.994 143.284 24.21C143.08 24.426 142.828 24.534 142.528 24.534ZM143.32 26.136V36H141.682V26.136H143.32ZM148.11 27.486V33.3C148.11 33.78 148.212 34.122 148.416 34.326C148.62 34.518 148.974 34.614 149.478 34.614H150.684V36H149.208C148.296 36 147.612 35.79 147.156 35.37C146.7 34.95 146.472 34.26 146.472 33.3V27.486H145.194V26.136H146.472V23.652H148.11V26.136H150.684V27.486H148.11ZM157.564 25.956C158.308 25.956 158.98 26.118 159.58 26.442C160.18 26.754 160.648 27.228 160.984 27.864C161.332 28.5 161.506 29.274 161.506 30.186V36H159.886V30.42C159.886 29.436 159.64 28.686 159.148 28.17C158.656 27.642 157.984 27.378 157.132 27.378C156.268 27.378 155.578 27.648 155.062 28.188C154.558 28.728 154.306 29.514 154.306 30.546V36H152.668V22.68H154.306V27.54C154.63 27.036 155.074 26.646 155.638 26.37C156.214 26.094 156.856 25.956 157.564 25.956ZM170.619 34.668H175.011V36H168.981V23.454H170.619V34.668ZM177.596 24.534C177.284 24.534 177.02 24.426 176.804 24.21C176.588 23.994 176.48 23.73 176.48 23.418C176.48 23.106 176.588 22.842 176.804 22.626C177.02 22.41 177.284 22.302 177.596 22.302C177.896 22.302 178.148 22.41 178.352 22.626C178.568 22.842 178.676 23.106 178.676 23.418C178.676 23.73 178.568 23.994 178.352 24.21C178.148 24.426 177.896 24.534 177.596 24.534ZM178.388 26.136V36H176.75V26.136H178.388ZM185.986 25.956C187.186 25.956 188.158 26.322 188.902 27.054C189.646 27.774 190.018 28.818 190.018 30.186V36H188.398V30.42C188.398 29.436 188.152 28.686 187.66 28.17C187.168 27.642 186.496 27.378 185.644 27.378C184.78 27.378 184.09 27.648 183.574 28.188C183.07 28.728 182.818 29.514 182.818 30.546V36H181.18V26.136H182.818V27.54C183.142 27.036 183.58 26.646 184.132 26.37C184.696 26.094 185.314 25.956 185.986 25.956ZM198.202 36L194.332 31.644V36H192.694V22.68H194.332V30.51L198.13 26.136H200.416L195.772 31.05L200.434 36H198.202ZM210.957 30.69C210.957 31.002 210.939 31.332 210.903 31.68H203.019C203.079 32.652 203.409 33.414 204.009 33.966C204.621 34.506 205.359 34.776 206.223 34.776C206.931 34.776 207.519 34.614 207.987 34.29C208.467 33.954 208.803 33.51 208.995 32.958H210.759C210.495 33.906 209.967 34.68 209.175 35.28C208.383 35.868 207.399 36.162 206.223 36.162C205.287 36.162 204.447 35.952 203.703 35.532C202.971 35.112 202.395 34.518 201.975 33.75C201.555 32.97 201.345 32.07 201.345 31.05C201.345 30.03 201.549 29.136 201.957 28.368C202.365 27.6 202.935 27.012 203.667 26.604C204.411 26.184 205.263 25.974 206.223 25.974C207.159 25.974 207.987 26.178 208.707 26.586C209.427 26.994 209.979 27.558 210.363 28.278C210.759 28.986 210.957 29.79 210.957 30.69ZM209.265 30.348C209.265 29.724 209.127 29.19 208.851 28.746C208.575 28.29 208.197 27.948 207.717 27.72C207.249 27.48 206.727 27.36 206.151 27.36C205.323 27.36 204.615 27.624 204.027 28.152C203.451 28.68 203.121 29.412 203.037 30.348H209.265ZM212.507 31.032C212.507 30.024 212.711 29.142 213.119 28.386C213.527 27.618 214.085 27.024 214.793 26.604C215.513 26.184 216.317 25.974 217.205 25.974C217.973 25.974 218.687 26.154 219.347 26.514C220.007 26.862 220.511 27.324 220.859 27.9V22.68H222.515V36H220.859V34.146C220.535 34.734 220.055 35.22 219.419 35.604C218.783 35.976 218.039 36.162 217.187 36.162C216.311 36.162 215.513 35.946 214.793 35.514C214.085 35.082 213.527 34.476 213.119 33.696C212.711 32.916 212.507 32.028 212.507 31.032ZM220.859 31.05C220.859 30.306 220.709 29.658 220.409 29.106C220.109 28.554 219.701 28.134 219.185 27.846C218.681 27.546 218.123 27.396 217.511 27.396C216.899 27.396 216.341 27.54 215.837 27.828C215.333 28.116 214.931 28.536 214.631 29.088C214.331 29.64 214.181 30.288 214.181 31.032C214.181 31.788 214.331 32.448 214.631 33.012C214.931 33.564 215.333 33.99 215.837 34.29C216.341 34.578 216.899 34.722 217.511 34.722C218.123 34.722 218.681 34.578 219.185 34.29C219.701 33.99 220.109 33.564 220.409 33.012C220.709 32.448 220.859 31.794 220.859 31.05ZM226.921 23.454V36H225.283V23.454H226.921ZM234.519 25.956C235.719 25.956 236.691 26.322 237.435 27.054C238.179 27.774 238.551 28.818 238.551 30.186V36H236.931V30.42C236.931 29.436 236.685 28.686 236.193 28.17C235.701 27.642 235.029 27.378 234.177 27.378C233.313 27.378 232.623 27.648 232.107 28.188C231.603 28.728 231.351 29.514 231.351 30.546V36H229.713V26.136H231.351V27.54C231.675 27.036 232.113 26.646 232.665 26.37C233.229 26.094 233.847 25.956 234.519 25.956Z" fill="white"/>
<g clip-path="url(#clip0_441_1382)">
<path d="M45.1727 40.5617H40.7277V33.6004C40.7277 31.9405 40.698 29.8035 38.4158 29.8035C36.1007 29.8035 35.7464 31.6122 35.7464 33.4796V40.5612H31.3015V26.2461H35.5686V28.2024H35.6284C36.0554 27.4722 36.6725 26.8715 37.414 26.4643C38.1554 26.0571 38.9934 25.8586 39.8387 25.89C44.344 25.89 45.1746 28.8534 45.1746 32.7086L45.1727 40.5617ZM26.2859 24.2894C24.8612 24.2896 23.7061 23.1349 23.7059 21.7102C23.7056 20.2856 24.8603 19.1305 26.2849 19.1302C27.7096 19.1299 28.8647 20.2846 28.8649 21.7093C28.865 22.3934 28.5934 23.0496 28.1097 23.5335C27.6261 24.0173 26.97 24.2892 26.2859 24.2894ZM28.5084 40.5618H24.0587V26.2461H28.5083V40.5617L28.5084 40.5618ZM47.3888 15.0021H21.8251C20.6169 14.9885 19.6261 15.9563 19.6113 17.1645V42.8348C19.6256 44.0436 20.6163 45.0124 21.825 44.9997H47.3888C48.6 45.0147 49.5946 44.0459 49.6113 42.8348V17.1625C49.5941 15.952 48.5994 14.9842 47.3888 15.0001" fill="white"/>
</g>
<defs>
<filter id="filter0_d_441_1382" x="0.611328" y="0" width="257" height="68" filterUnits="userSpaceOnUse" color-interpolation-filters="sRGB">
<feFlood flood-opacity="0" result="BackgroundImageFix"/>
<feColorMatrix in="SourceAlpha" type="matrix" values="0 0 0 0 0 0 0 0 0 0 0 0 0 0 0 0 0 0 127 0" result="hardAlpha"/>
<feOffset dy="4"/>
<feGaussianBlur stdDeviation="2"/>
<feComposite in2="hardAlpha" operator="out"/>
<feColorMatrix type="matrix" values="0 0 0 0 0 0 0 0 0 0 0 0 0 0 0 0 0 0 0.25 0"/>
<feBlend mode="normal" in2="BackgroundImageFix" result="effect1_dropShadow_441_1382"/>
<feBlend mode="normal" in="SourceGraphic" in2="effect1_dropShadow_441_1382" result="shape"/>
</filter>
<clipPath id="clip0_441_1382">
<rect width="30" height="30" fill="white" transform="translate(19.6113 15)"/>
</clipPath>
</defs>
</svg>
