<svg width="176" height="60" viewBox="0 0 176 60" fill="none" xmlns="http://www.w3.org/2000/svg">
<path d="M12.2561 25.674C12.1441 25.562 11.9361 25.41 11.6321 25.218C11.3441 25.026 10.9841 24.842 10.5521 24.666C10.1361 24.49 9.68013 24.338 9.18413 24.21C8.68813 24.066 8.18413 23.994 7.67213 23.994C6.77613 23.994 6.09613 24.162 5.63213 24.498C5.18413 24.834 4.96013 25.306 4.96013 25.914C4.96013 26.378 5.10413 26.746 5.39213 27.018C5.68013 27.29 6.11213 27.522 6.68813 27.714C7.26413 27.906 7.98413 28.114 8.84813 28.338C9.96813 28.61 10.9361 28.946 11.7521 29.346C12.5841 29.73 13.2161 30.242 13.6481 30.882C14.0961 31.506 14.3201 32.338 14.3201 33.378C14.3201 34.29 14.1521 35.074 13.8161 35.73C13.4801 36.37 13.0161 36.89 12.4241 37.29C11.8321 37.69 11.1601 37.986 10.4081 38.178C9.65613 38.354 8.85613 38.442 8.00813 38.442C7.16013 38.442 6.31213 38.354 5.46413 38.178C4.61613 38.002 3.80013 37.754 3.01613 37.434C2.23213 37.098 1.51213 36.698 0.856125 36.234L2.32013 33.378C2.46413 33.522 2.72013 33.714 3.08813 33.954C3.45613 34.178 3.90413 34.41 4.43213 34.65C4.96013 34.874 5.53613 35.066 6.16013 35.226C6.78413 35.386 7.41613 35.466 8.05613 35.466C8.95213 35.466 9.63213 35.314 10.0961 35.01C10.5601 34.706 10.7921 34.274 10.7921 33.714C10.7921 33.202 10.6081 32.802 10.2401 32.514C9.87213 32.226 9.36013 31.978 8.70413 31.77C8.04813 31.546 7.27213 31.306 6.37613 31.05C5.30413 30.746 4.40813 30.41 3.68813 30.042C2.96813 29.658 2.43213 29.178 2.08013 28.602C1.72813 28.026 1.55213 27.306 1.55213 26.442C1.55213 25.274 1.82413 24.298 2.36813 23.514C2.92813 22.714 3.68013 22.114 4.62413 21.714C5.56813 21.298 6.61613 21.09 7.76813 21.09C8.56813 21.09 9.32013 21.178 10.0241 21.354C10.7441 21.53 11.4161 21.762 12.0401 22.05C12.6641 22.338 13.2241 22.65 13.7201 22.986L12.2561 25.674ZM15.3206 33.546V25.674H18.5366V32.85C18.5366 33.81 18.7126 34.538 19.0646 35.034C19.4166 35.514 19.9366 35.754 20.6246 35.754C21.0406 35.754 21.4486 35.674 21.8486 35.514C22.2646 35.338 22.6406 35.082 22.9766 34.746C23.3286 34.41 23.6246 33.986 23.8646 33.474V25.674H27.0806V34.65C27.0806 34.986 27.1366 35.226 27.2486 35.37C27.3766 35.514 27.5766 35.602 27.8486 35.634V38.25C27.5286 38.298 27.2566 38.33 27.0326 38.346C26.8246 38.378 26.6326 38.394 26.4566 38.394C25.8806 38.394 25.4086 38.266 25.0406 38.01C24.6886 37.738 24.4806 37.37 24.4166 36.906L24.3446 35.898C23.7846 36.746 23.0646 37.394 22.1846 37.842C21.3046 38.274 20.3366 38.49 19.2806 38.49C17.9846 38.49 17.0006 38.074 16.3286 37.242C15.6566 36.394 15.3206 35.162 15.3206 33.546ZM36.8125 38.49C35.8365 38.49 34.9725 38.274 34.2205 37.842C33.4845 37.394 32.9085 36.794 32.4925 36.042V43.362H29.2765V25.674H32.0845V27.834C32.5645 27.098 33.1725 26.522 33.9085 26.106C34.6445 25.674 35.4845 25.458 36.4285 25.458C37.2765 25.458 38.0525 25.626 38.7565 25.962C39.4765 26.298 40.1005 26.77 40.6285 27.378C41.1565 27.97 41.5645 28.658 41.8525 29.442C42.1565 30.21 42.3085 31.042 42.3085 31.938C42.3085 33.154 42.0685 34.258 41.5885 35.25C41.1245 36.242 40.4765 37.034 39.6445 37.626C38.8285 38.202 37.8845 38.49 36.8125 38.49ZM35.7325 35.754C36.2285 35.754 36.6765 35.65 37.0765 35.442C37.4765 35.234 37.8205 34.954 38.1085 34.602C38.4125 34.234 38.6365 33.826 38.7805 33.378C38.9405 32.914 39.0205 32.434 39.0205 31.938C39.0205 31.41 38.9325 30.922 38.7565 30.474C38.5965 30.026 38.3565 29.634 38.0365 29.298C37.7165 28.946 37.3405 28.674 36.9085 28.482C36.4925 28.29 36.0365 28.194 35.5405 28.194C35.2365 28.194 34.9245 28.25 34.6045 28.362C34.3005 28.458 34.0045 28.602 33.7165 28.794C33.4285 28.986 33.1725 29.21 32.9485 29.466C32.7405 29.722 32.5885 30.002 32.4925 30.306V33.258C32.6845 33.722 32.9405 34.146 33.2605 34.53C33.5965 34.914 33.9805 35.218 34.4125 35.442C34.8445 35.65 35.2845 35.754 35.7325 35.754ZM49.3194 38.49C48.3114 38.49 47.3994 38.322 46.5834 37.986C45.7674 37.634 45.0714 37.162 44.4954 36.57C43.9194 35.962 43.4714 35.274 43.1514 34.506C42.8474 33.722 42.6954 32.898 42.6954 32.034C42.6954 30.834 42.9594 29.738 43.4874 28.746C44.0314 27.754 44.7994 26.962 45.7914 26.37C46.7994 25.762 47.9834 25.458 49.3434 25.458C50.7194 25.458 51.8954 25.762 52.8714 26.37C53.8474 26.962 54.5914 27.754 55.1034 28.746C55.6314 29.722 55.8954 30.778 55.8954 31.914C55.8954 32.106 55.8874 32.306 55.8714 32.514C55.8554 32.706 55.8394 32.866 55.8234 32.994H46.1034C46.1674 33.634 46.3514 34.194 46.6554 34.674C46.9754 35.154 47.3754 35.522 47.8554 35.778C48.3514 36.018 48.8794 36.138 49.4394 36.138C50.0794 36.138 50.6794 35.986 51.2394 35.682C51.8154 35.362 52.2074 34.946 52.4154 34.434L55.1754 35.202C54.8714 35.842 54.4314 36.41 53.8554 36.906C53.2954 37.402 52.6314 37.794 51.8634 38.082C51.0954 38.354 50.2474 38.49 49.3194 38.49ZM46.0314 30.954H52.6074C52.5434 30.314 52.3594 29.762 52.0554 29.298C51.7674 28.818 51.3834 28.45 50.9034 28.194C50.4234 27.922 49.8874 27.786 49.2954 27.786C48.7194 27.786 48.1914 27.922 47.7114 28.194C47.2474 28.45 46.8634 28.818 46.5594 29.298C46.2714 29.762 46.0954 30.314 46.0314 30.954ZM64.3426 28.458C63.3666 28.458 62.4946 28.65 61.7266 29.034C60.9586 29.402 60.4066 29.938 60.0706 30.642V38.25H56.8546V25.674H59.8066V28.362C60.2546 27.498 60.8226 26.818 61.5106 26.322C62.1986 25.826 62.9266 25.554 63.6946 25.506C63.8706 25.506 64.0066 25.506 64.1026 25.506C64.1986 25.506 64.2786 25.514 64.3426 25.53V28.458Z" fill="#C58940"/>
<path d="M67.0347 29.586C67.0347 28.546 67.2267 27.53 67.6107 26.538C67.9947 25.53 68.5547 24.618 69.2907 23.802C70.0267 22.986 70.9227 22.338 71.9787 21.858C73.0347 21.362 74.2347 21.114 75.5787 21.114C77.1787 21.114 78.5627 21.458 79.7307 22.146C80.9147 22.834 81.7947 23.73 82.3707 24.834L79.3467 26.946C79.0907 26.338 78.7467 25.866 78.3147 25.53C77.8987 25.194 77.4347 24.962 76.9227 24.834C76.4267 24.69 75.9467 24.618 75.4827 24.618C74.7307 24.618 74.0747 24.77 73.5147 25.074C72.9547 25.362 72.4907 25.754 72.1227 26.25C71.7547 26.746 71.4827 27.298 71.3067 27.906C71.1307 28.514 71.0427 29.122 71.0427 29.73C71.0427 30.402 71.1467 31.05 71.3547 31.674C71.5627 32.298 71.8587 32.85 72.2427 33.33C72.6427 33.81 73.1227 34.194 73.6827 34.482C74.2427 34.754 74.8587 34.89 75.5307 34.89C76.0107 34.89 76.4987 34.81 76.9947 34.65C77.4907 34.49 77.9467 34.242 78.3627 33.906C78.7947 33.554 79.1227 33.098 79.3467 32.538L82.5627 34.434C82.2267 35.266 81.6747 35.978 80.9067 36.57C80.1387 37.162 79.2667 37.618 78.2907 37.938C77.3307 38.242 76.3787 38.394 75.4347 38.394C74.2027 38.394 73.0667 38.146 72.0267 37.65C71.0027 37.138 70.1147 36.466 69.3627 35.634C68.6267 34.786 68.0507 33.842 67.6347 32.802C67.2347 31.746 67.0347 30.674 67.0347 29.586ZM90.1364 38.49C89.0644 38.49 88.1044 38.314 87.2564 37.962C86.4244 37.61 85.7204 37.13 85.1444 36.522C84.5684 35.914 84.1284 35.218 83.8244 34.434C83.5364 33.65 83.3924 32.826 83.3924 31.962C83.3924 31.082 83.5364 30.25 83.8244 29.466C84.1284 28.682 84.5684 27.986 85.1444 27.378C85.7204 26.77 86.4244 26.29 87.2564 25.938C88.1044 25.586 89.0644 25.41 90.1364 25.41C91.2084 25.41 92.1604 25.586 92.9924 25.938C93.8244 26.29 94.5284 26.77 95.1044 27.378C95.6804 27.986 96.1204 28.682 96.4244 29.466C96.7284 30.25 96.8804 31.082 96.8804 31.962C96.8804 32.826 96.7284 33.65 96.4244 34.434C96.1204 35.218 95.6804 35.914 95.1044 36.522C94.5284 37.13 93.8244 37.61 92.9924 37.962C92.1604 38.314 91.2084 38.49 90.1364 38.49ZM87.3284 31.962C87.3284 32.618 87.4484 33.194 87.6884 33.69C87.9444 34.186 88.2804 34.57 88.6964 34.842C89.1124 35.114 89.5924 35.25 90.1364 35.25C90.6644 35.25 91.1364 35.114 91.5524 34.842C91.9844 34.554 92.3204 34.162 92.5604 33.666C92.8004 33.17 92.9204 32.602 92.9204 31.962C92.9204 31.306 92.8004 30.73 92.5604 30.234C92.3204 29.738 91.9844 29.354 91.5524 29.082C91.1364 28.81 90.6644 28.674 90.1364 28.674C89.5924 28.674 89.1124 28.81 88.6964 29.082C88.2804 29.354 87.9444 29.738 87.6884 30.234C87.4484 30.73 87.3284 31.306 87.3284 31.962ZM110.929 38.25H107.089V31.17C107.089 30.338 106.929 29.738 106.609 29.37C106.305 28.986 105.897 28.794 105.385 28.794C105.033 28.794 104.673 28.89 104.305 29.082C103.937 29.274 103.601 29.538 103.297 29.874C103.009 30.21 102.785 30.594 102.625 31.026V38.25H98.7848V25.65H102.241V27.762C102.561 27.266 102.961 26.842 103.441 26.49C103.921 26.138 104.473 25.874 105.097 25.698C105.721 25.506 106.401 25.41 107.137 25.41C107.953 25.41 108.609 25.562 109.105 25.866C109.617 26.154 110.001 26.538 110.257 27.018C110.529 27.498 110.705 28.018 110.785 28.578C110.881 29.122 110.929 29.658 110.929 30.186V38.25ZM125.624 38.25H121.784V31.17C121.784 30.338 121.624 29.738 121.304 29.37C121 28.986 120.592 28.794 120.08 28.794C119.728 28.794 119.368 28.89 119 29.082C118.632 29.274 118.296 29.538 117.992 29.874C117.704 30.21 117.48 30.594 117.32 31.026V38.25H113.48V25.65H116.936V27.762C117.256 27.266 117.656 26.842 118.136 26.49C118.616 26.138 119.168 25.874 119.792 25.698C120.416 25.506 121.096 25.41 121.832 25.41C122.648 25.41 123.304 25.562 123.8 25.866C124.312 26.154 124.696 26.538 124.952 27.018C125.224 27.498 125.4 28.018 125.48 28.578C125.576 29.122 125.624 29.658 125.624 30.186V38.25ZM134.199 38.49C133.127 38.49 132.175 38.322 131.343 37.986C130.511 37.634 129.799 37.162 129.207 36.57C128.631 35.978 128.191 35.298 127.887 34.53C127.583 33.746 127.431 32.93 127.431 32.082C127.431 30.866 127.695 29.762 128.223 28.77C128.767 27.762 129.543 26.954 130.551 26.346C131.559 25.722 132.775 25.41 134.199 25.41C135.623 25.41 136.831 25.714 137.823 26.322C138.831 26.93 139.599 27.73 140.127 28.722C140.655 29.698 140.919 30.762 140.919 31.914C140.919 32.138 140.903 32.362 140.871 32.586C140.855 32.794 140.839 32.978 140.823 33.138H131.511C131.559 33.698 131.711 34.17 131.967 34.554C132.239 34.938 132.583 35.234 132.999 35.442C133.415 35.634 133.855 35.73 134.319 35.73C134.895 35.73 135.431 35.594 135.927 35.322C136.439 35.05 136.791 34.682 136.983 34.218L140.247 35.13C139.927 35.786 139.471 36.37 138.879 36.882C138.303 37.378 137.615 37.77 136.815 38.058C136.031 38.346 135.159 38.49 134.199 38.49ZM131.415 30.786H136.887C136.823 30.258 136.671 29.802 136.431 29.418C136.191 29.018 135.871 28.714 135.471 28.506C135.071 28.282 134.631 28.17 134.151 28.17C133.655 28.17 133.207 28.282 132.807 28.506C132.423 28.714 132.111 29.018 131.871 29.418C131.631 29.802 131.479 30.258 131.415 30.786ZM148.684 38.49C147.612 38.49 146.66 38.314 145.828 37.962C144.996 37.61 144.284 37.13 143.692 36.522C143.116 35.914 142.676 35.218 142.372 34.434C142.068 33.65 141.916 32.818 141.916 31.938C141.916 30.786 142.18 29.714 142.708 28.722C143.252 27.73 144.028 26.93 145.036 26.322C146.044 25.714 147.26 25.41 148.684 25.41C150.124 25.41 151.34 25.722 152.332 26.346C153.34 26.954 154.092 27.754 154.588 28.746L150.844 29.874C150.604 29.49 150.292 29.194 149.908 28.986C149.54 28.778 149.124 28.674 148.66 28.674C148.132 28.674 147.652 28.81 147.22 29.082C146.804 29.354 146.468 29.73 146.212 30.21C145.972 30.69 145.852 31.266 145.852 31.938C145.852 32.594 145.98 33.17 146.236 33.666C146.492 34.162 146.828 34.554 147.244 34.842C147.66 35.114 148.132 35.25 148.66 35.25C148.98 35.25 149.276 35.202 149.548 35.106C149.836 34.994 150.092 34.842 150.316 34.65C150.556 34.458 150.74 34.242 150.868 34.002L154.612 35.154C154.308 35.794 153.868 36.37 153.292 36.882C152.732 37.378 152.068 37.77 151.3 38.058C150.532 38.346 149.66 38.49 148.684 38.49ZM164.507 37.578C164.155 37.722 163.763 37.866 163.331 38.01C162.915 38.154 162.475 38.266 162.011 38.346C161.547 38.442 161.091 38.49 160.643 38.49C160.003 38.49 159.411 38.386 158.867 38.178C158.339 37.954 157.915 37.594 157.595 37.098C157.291 36.602 157.139 35.946 157.139 35.13V28.554H155.531V25.65H157.139V21.642H160.979V25.65H163.547V28.554H160.979V33.81C160.979 34.226 161.083 34.53 161.291 34.722C161.499 34.898 161.763 34.986 162.083 34.986C162.355 34.986 162.643 34.938 162.947 34.842C163.267 34.746 163.539 34.642 163.763 34.53L164.507 37.578ZM170.828 38.49C169.756 38.49 168.708 38.314 167.684 37.962C166.66 37.61 165.796 37.09 165.092 36.402L166.412 33.978C167.18 34.538 167.924 34.962 168.644 35.25C169.38 35.538 170.068 35.682 170.708 35.682C171.204 35.682 171.588 35.602 171.86 35.442C172.132 35.282 172.268 35.034 172.268 34.698C172.268 34.458 172.188 34.274 172.028 34.146C171.868 34.002 171.62 33.874 171.284 33.762C170.964 33.65 170.564 33.53 170.084 33.402C169.124 33.082 168.324 32.77 167.684 32.466C167.044 32.162 166.564 31.794 166.244 31.362C165.924 30.914 165.764 30.338 165.764 29.634C165.764 28.786 165.972 28.05 166.388 27.426C166.82 26.786 167.428 26.29 168.212 25.938C168.996 25.586 169.932 25.41 171.02 25.41C171.884 25.41 172.724 25.546 173.54 25.818C174.372 26.09 175.148 26.546 175.868 27.186L174.38 29.586C173.66 29.09 173.02 28.73 172.46 28.506C171.9 28.282 171.356 28.17 170.828 28.17C170.556 28.17 170.308 28.202 170.084 28.266C169.86 28.33 169.676 28.442 169.532 28.602C169.404 28.746 169.34 28.938 169.34 29.178C169.34 29.418 169.404 29.61 169.532 29.754C169.676 29.898 169.892 30.026 170.18 30.138C170.484 30.234 170.86 30.354 171.308 30.498C172.348 30.802 173.212 31.114 173.9 31.434C174.588 31.738 175.1 32.122 175.436 32.586C175.788 33.034 175.964 33.634 175.964 34.386C175.964 35.666 175.5 36.674 174.572 37.41C173.66 38.13 172.412 38.49 170.828 38.49Z" fill="#579BB1"/>
</svg>
